<svg xmlns="http://www.w3.org/2000/svg" viewBox="0 0 280.39 45.6" height="25">
    <g id="Layer_2" data-name="Layer 2">
        <g id="Layer_1-2" data-name="Layer 1">
            <path fill="#4764ae" d="M73.71,34.61H67.42l-11.52-20v20h-7V1.54h6.43L66.65,21.31V1.54h7.06Z"/>
            <path fill="#4764ae" d="M96.75,32.07c-1.44,2.16-4.8,3-6.53,3A11.43,11.43,0,0,1,78.79,23.38,11.44,11.44,0,0,1,90.22,11.71c1.44,0,4.8.48,6.53,3v-2.5h6.62V34.61H96.75Zm-5.43-3.36a5.33,5.33,0,1,0,0-10.66,5.49,5.49,0,0,0-5.61,5.33A5.5,5.5,0,0,0,91.32,28.71Z"/>
            <path fill="#4764ae" d="M123,12.19v5.28h-4.7V34.61h-6.63V17.47h-4.08V12.19h4.08V3.6h6.63v8.59Z"/>
            <path fill="#4764ae" d="M130.34,0a4,4,0,0,1,4.08,3.89,4,4,0,0,1-4.08,3.93,4.06,4.06,0,0,1-4.17-3.93A4,4,0,0,1,130.34,0Zm3.32,34.61H127V12.19h6.63Z"/>
            <path fill="#4764ae" d="M136.87,12.19H144l5.23,13.92,5.18-13.92h7.16L152,34.61h-5.71Z"/>
            <path fill="#4764ae" d="M184.87,30.53c-2.25,3.36-6.43,4.56-10.22,4.56a11.42,11.42,0,0,1-11.72-11.76c0-7.06,5.29-11.62,11.72-11.62s11.47,4.75,11.47,11.81c0,.58-.05,1.49-.09,2.07H169.61c.33,2.59,3.17,3.74,5.52,3.74A6.18,6.18,0,0,0,180,27.22Zm-5.47-9.12a4.54,4.54,0,0,0-4.7-3.84,4.91,4.91,0,0,0-5,3.84Z"/>
            <path fill="#4764ae" d="M213.77,11a9.64,9.64,0,0,0-7.25-3.36c-5.57,0-9.89,4.7-9.89,10.47s4.32,10.51,9.89,10.51c3.55,0,8-2.21,8-5.71h-8.88V17.23h17c0,12.39-6.63,17.86-16.13,17.86a16.88,16.88,0,0,1-17-16.94,16.87,16.87,0,0,1,17-17A16.33,16.33,0,0,1,219,6.58Z"/>
            <path fill="#4764ae" d="M243.58,32.07c-1.44,2.16-4.8,3-6.53,3a11.43,11.43,0,0,1-11.43-11.66,11.44,11.44,0,0,1,11.43-11.67c1.44,0,4.8.48,6.53,3v-2.5h6.62V34.61h-6.62Zm-5.43-3.36a5.33,5.33,0,1,0,0-10.66,5.49,5.49,0,0,0-5.61,5.33A5.5,5.5,0,0,0,238.15,28.71Z"/>
            <path fill="#4764ae" d="M263,12.19V15c1.1-2.07,3.79-3.27,6.57-3.27,5.76,0,10.85,4.56,10.85,11.62s-5.09,11.76-10.85,11.76c-2.78,0-5.47-1.15-6.57-3.22V45.6h-6.63V12.19ZM268.3,28.8a5.11,5.11,0,0,0,5.18-5.33,5.13,5.13,0,0,0-5.18-5.42,5.22,5.22,0,0,0-5.19,5.42A5.08,5.08,0,0,0,268.3,28.8Z"/>
            <path fill="#4764ae" d="M36.19.78H1.81A1.81,1.81,0,0,0,0,2.59V29.76a1.71,1.71,0,0,0,.15.71A1.87,1.87,0,0,0,1,31.58L17.87,42.12a2,2,0,0,0,2.09,0L36.84,31.58a1.87,1.87,0,0,0,.49-.43A1.78,1.78,0,0,0,38,29.76V2.59A1.81,1.81,0,0,0,36.19.78ZM25.7,29a.61.61,0,0,1-.57.54h-.75L15.44,17.55h0L14.06,28.62a.67.67,0,0,1-.6.57H9.77a.48.48,0,0,1-.45-.51L12.14,8.43a.64.64,0,0,1,.6-.54h.66l8.94,11.58h0L23.81,8.76a.61.61,0,0,1,.57-.57H28a.48.48,0,0,1,.48.51Z"/>
        </g>
    </g>
</svg>
